<svg xmlns="http://www.w3.org/2000/svg" viewBox="0 0 100 100">
  <rect x="4" y="4" width="92" height="92" rx="20" fill="#14121C"/>
  <rect x="4" y="4" width="92" height="92" rx="20" fill="none" stroke="#302c44" stroke-width="3"/>
  <g fill="#33E6C4">
    <rect x="25.5" y="22.0" width="7" height="7"/>
    <rect x="67.5" y="22.0" width="7" height="7"/>
    <rect x="32.5" y="29.0" width="7" height="7"/>
    <rect x="60.5" y="29.0" width="7" height="7"/>
    <rect x="25.5" y="36.0" width="7" height="7"/>
    <rect x="32.5" y="36.0" width="7" height="7"/>
    <rect x="39.5" y="36.0" width="7" height="7"/>
    <rect x="46.5" y="36.0" width="7" height="7"/>
    <rect x="53.5" y="36.0" width="7" height="7"/>
    <rect x="60.5" y="36.0" width="7" height="7"/>
    <rect x="67.5" y="36.0" width="7" height="7"/>
    <rect x="18.5" y="43.0" width="7" height="7"/>
    <rect x="25.5" y="43.0" width="7" height="7"/>
    <rect x="39.5" y="43.0" width="7" height="7"/>
    <rect x="46.5" y="43.0" width="7" height="7"/>
    <rect x="53.5" y="43.0" width="7" height="7"/>
    <rect x="67.5" y="43.0" width="7" height="7"/>
    <rect x="74.5" y="43.0" width="7" height="7"/>
    <rect x="11.5" y="50.0" width="7" height="7"/>
    <rect x="18.5" y="50.0" width="7" height="7"/>
    <rect x="25.5" y="50.0" width="7" height="7"/>
    <rect x="32.5" y="50.0" width="7" height="7"/>
    <rect x="39.5" y="50.0" width="7" height="7"/>
    <rect x="46.5" y="50.0" width="7" height="7"/>
    <rect x="53.5" y="50.0" width="7" height="7"/>
    <rect x="60.5" y="50.0" width="7" height="7"/>
    <rect x="67.5" y="50.0" width="7" height="7"/>
    <rect x="74.5" y="50.0" width="7" height="7"/>
    <rect x="81.5" y="50.0" width="7" height="7"/>
  </g>
  <g fill="#FF3D7F">
    <rect x="11.5" y="57.0" width="7" height="7"/>
    <rect x="25.5" y="57.0" width="7" height="7"/>
    <rect x="32.5" y="57.0" width="7" height="7"/>
    <rect x="39.5" y="57.0" width="7" height="7"/>
    <rect x="46.5" y="57.0" width="7" height="7"/>
    <rect x="53.5" y="57.0" width="7" height="7"/>
    <rect x="60.5" y="57.0" width="7" height="7"/>
    <rect x="67.5" y="57.0" width="7" height="7"/>
    <rect x="81.5" y="57.0" width="7" height="7"/>
    <rect x="11.5" y="64.0" width="7" height="7"/>
    <rect x="25.5" y="64.0" width="7" height="7"/>
    <rect x="67.5" y="64.0" width="7" height="7"/>
    <rect x="81.5" y="64.0" width="7" height="7"/>
    <rect x="32.5" y="71.0" width="7" height="7"/>
    <rect x="39.5" y="71.0" width="7" height="7"/>
    <rect x="53.5" y="71.0" width="7" height="7"/>
    <rect x="60.5" y="71.0" width="7" height="7"/>
  </g>
</svg>
