<svg xmlns="http://www.w3.org/2000/svg" viewBox="0 0 100 100">
  <!-- Background circle -->
  <circle cx="50" cy="50" r="48" fill="#8B4513"/>
  <circle cx="50" cy="50" r="45" fill="#D2691E"/>
  
  <!-- Game controller body -->
  <path d="M 30 40 Q 25 45 25 52 L 25 58 Q 25 65 30 65 L 45 65 L 45 70 Q 45 72 47 72 L 53 72 Q 55 72 55 70 L 55 65 L 70 65 Q 75 65 75 58 L 75 52 Q 75 45 70 40 Z" fill="#FFE4B5" stroke="#8B4513" stroke-width="2"/>
  
  <!-- D-pad (left side) -->
  <rect x="32" y="48" width="3" height="8" fill="#8B4513" rx="1"/>
  <rect x="29" y="51" width="9" height="3" fill="#8B4513" rx="1"/>
  
  <!-- Action buttons (right side) -->
  <circle cx="62" cy="50" r="3" fill="#FF6B6B"/>
  <circle cx="68" cy="50" r="3" fill="#4ECDC4"/>
  <circle cx="65" cy="47" r="3" fill="#FFE66D"/>
  <circle cx="65" cy="53" r="3" fill="#95E1D3"/>
  
  <!-- Start/Select buttons -->
  <rect x="47" y="54" width="6" height="2" fill="#8B4513" rx="1"/>
  
  <!-- Handles -->
  <ellipse cx="30" cy="65" rx="8" ry="6" fill="#D2691E"/>
  <ellipse cx="70" cy="65" rx="8" ry="6" fill="#D2691E"/>
  
  <!-- Shine effect -->
  <ellipse cx="35" cy="45" rx="8" ry="6" fill="rgba(255,255,255,0.3)"/>
</svg>
